<svg
  width="1024"
  height="1024"
  viewBox="0 0 1024 1024"
  fill="none"
  xmlns="http://www.w3.org/2000/svg"
>
<rect width="1024" height="1024" rx="300" fill="url(#paint0_linear_268_117)" />
<g filter="url(#filter0_d_268_117)">
<path
      d="M311.607 200.123L391.334 262.771C407.423 255.1 424.211 248.989 441.467 244.524L462.241 145.288C495.253 140.904 528.7 140.904 561.712 145.288L582.533 244.524C599.938 249.039 616.688 255.168 632.643 262.771L712.37 200.123C740.48 217.984 766.095 239.499 788.541 264.104L740.723 353.491C751.017 367.925 759.953 383.365 767.392 399.647L868.805 402.922C878.678 433.989 884.62 466.857 886 500.871L791.863 538.605C790.459 556.642 787.324 574.187 782.645 591.124L858.231 658.778C845.537 689.564 828.787 718.517 808.425 744.867L712.042 713.285C699.553 725.963 685.893 737.43 671.243 747.534L685.654 847.986C656.158 863.462 624.716 874.902 592.171 882L538.646 795.795C520.921 797.464 503.079 797.464 485.354 795.795L431.829 882C399.292 874.9 367.858 863.46 338.37 847.986L352.757 747.534C338.106 737.422 324.446 725.947 311.958 713.262L215.575 744.89C195.211 718.532 178.461 689.572 165.769 658.778L241.331 591.1C236.676 574.163 233.565 556.618 232.137 538.582L138 500.871C139.404 466.857 145.299 433.989 155.195 402.899L256.584 399.624C264.047 383.365 272.983 367.925 283.277 353.491L235.436 264.128C257.882 239.523 283.496 218.007 311.607 200.146V200.123ZM512 656.673C549.227 656.673 584.929 641.885 611.252 615.562C637.576 589.239 652.364 553.537 652.364 516.311C652.364 479.085 637.576 443.383 611.252 417.06C584.929 390.737 549.227 375.949 512 375.949C474.773 375.949 439.071 390.737 412.748 417.06C386.424 443.383 371.636 479.085 371.636 516.311C371.636 553.537 386.424 589.239 412.748 615.562C439.071 641.885 474.773 656.673 512 656.673Z"
      fill="white"
      fill-opacity="0.6"
      shape-rendering="crispEdges"
    />
</g>
<path
    fill-rule="evenodd"
    clip-rule="evenodd"
    d="M453.133 815.129L453.136 815.13C432.909 766.185 426.011 709.371 425.107 658.341C424.636 631.719 425.796 606.671 427.546 585.135C431.015 542.458 436.801 513.576 436.801 513.576C436.801 513.576 437.065 513.098 437.694 512.25C437.064 513.099 436.799 513.577 436.799 513.577C436.799 513.577 431.013 542.458 427.545 585.134C425.794 606.67 424.634 631.719 425.106 658.342C426.009 709.372 432.907 766.185 453.133 815.129Z"
    fill="black"
  />
<path
    d="M449.657 501.417C448.791 502.01 447.977 502.592 447.214 503.161C446.45 503.731 445.736 504.288 445.07 504.829C444.291 505.462 443.577 506.074 442.924 506.66C442.489 507.05 442.082 507.429 441.7 507.795C441.338 508.142 440.999 508.478 440.682 508.801C440.417 509.072 440.167 509.334 439.932 509.586C439.349 510.213 438.86 510.78 438.454 511.276C438.348 511.406 438.247 511.532 438.152 511.652C438.064 511.764 437.98 511.872 437.901 511.975C437.828 512.07 437.759 512.162 437.694 512.25C437.065 513.098 436.801 513.576 436.801 513.576C436.801 513.576 431.015 542.458 427.546 585.135C425.796 606.671 424.636 631.719 425.107 658.341C426.011 709.371 432.909 766.185 453.136 815.13C468.347 851.938 491.096 884.296 524.502 906.395C545.76 920.458 571.333 930.367 602.026 934.626C604.103 934.915 606.164 935.172 608.21 935.398C845.293 961.602 956 551.93 956 551.93C956 551.93 905.161 511.239 804.975 481.375C704.789 451.51 714.485 455.519 660.733 451.618C606.981 447.717 553.228 450.516 529.675 463.891C525.367 464.523 507.219 480.621 503.35 481.375C499.23 482.177 495.354 483.041 491.706 483.954C487.747 484.944 484.058 485.992 480.622 487.078C476.814 488.282 473.318 489.535 470.111 490.811C468.426 491.481 466.82 492.158 465.291 492.838C463.761 493.519 462.308 494.202 460.928 494.885C459.583 495.551 458.307 496.216 457.098 496.877C455.404 497.803 453.841 498.722 452.399 499.624C451.431 500.23 450.518 500.829 449.657 501.417Z"
    fill="black"
  />
<g filter="url(#filter1_d_268_117)">
<path
      fill-rule="evenodd"
      clip-rule="evenodd"
      d="M516.979 789.729L516.982 789.73C500.46 749.711 494.826 703.258 494.088 661.534C493.703 639.767 494.65 619.287 496.08 601.679C498.913 566.784 503.64 543.169 503.64 543.169C503.64 543.169 503.855 542.779 504.369 542.085C503.854 542.779 503.638 543.17 503.638 543.17C503.638 543.17 498.912 566.785 496.079 601.678C494.649 619.286 493.701 639.767 494.086 661.534C494.824 703.258 500.458 749.711 516.979 789.729ZM701.263 519.249C698.71 518.867 696.081 518.489 693.374 518.117C691.433 517.849 689.47 517.587 687.484 517.33C633.773 510.379 595.344 511.122 568.011 515.137C595.344 511.122 633.773 510.38 687.482 517.331C689.486 517.59 691.45 517.852 693.374 518.117C696.046 518.485 698.676 518.864 701.263 519.252L701.263 519.249Z"
      fill="white"
    />
<path
      fill-rule="evenodd"
      clip-rule="evenodd"
      d="M693.374 518.117C691.45 517.852 689.486 517.59 687.482 517.331C633.773 510.38 595.344 511.122 568.011 515.137C564.492 515.654 561.158 516.225 557.998 516.84C554.632 517.496 551.466 518.203 548.487 518.949C545.252 519.759 542.239 520.616 539.433 521.504C536.323 522.489 533.467 523.513 530.848 524.556C529.471 525.104 528.16 525.658 526.911 526.214C525.661 526.77 524.474 527.329 523.346 527.887C522.248 528.431 521.206 528.975 520.218 529.516C518.835 530.273 517.558 531.024 516.38 531.762C515.589 532.258 514.843 532.747 514.14 533.228C513.432 533.712 512.768 534.188 512.144 534.654C511.52 535.12 510.937 535.575 510.394 536.017C509.757 536.535 509.174 537.036 508.641 537.515C508.285 537.834 507.952 538.143 507.641 538.443C507.345 538.727 507.068 539.001 506.81 539.265C506.593 539.487 506.389 539.701 506.197 539.907C505.721 540.42 505.321 540.883 504.989 541.289C504.903 541.396 504.821 541.498 504.743 541.596C504.671 541.688 504.603 541.776 504.538 541.86C504.478 541.938 504.422 542.013 504.369 542.085C503.855 542.779 503.64 543.169 503.64 543.169C503.64 543.169 498.913 566.784 496.08 601.679C494.65 619.287 493.703 639.767 494.088 661.534C494.826 703.258 500.46 749.711 516.982 789.73C529.406 819.825 547.988 846.282 575.275 864.351C592.639 875.849 613.527 883.951 638.597 887.434C640.294 887.669 641.978 887.879 643.648 888.064C837.301 909.49 858 592.393 858 592.393C858 592.393 850.319 558.153 768.486 533.735C751.769 528.747 731.959 524.169 708.488 520.376C706.117 519.993 703.709 519.618 701.263 519.252C698.676 518.864 696.046 518.485 693.374 518.117ZM583.932 728.12C603.156 730.791 620.85 716.975 623.454 697.262C626.058 677.549 612.585 659.403 593.362 656.733C574.139 654.063 556.445 667.879 553.841 687.592C551.237 707.305 564.709 725.45 583.932 728.12ZM750.871 687.25L741.258 666.905C739.239 662.63 733.511 661.834 730.456 665.404L715.912 682.394C714.891 683.586 713.473 684.364 711.919 684.583L691.58 687.459L689.854 687.703C685.304 688.346 682.872 693.403 685.189 697.402L686.91 700.373L696.675 717.223C697.448 718.556 697.727 720.119 697.463 721.633L693.525 744.185C692.721 748.789 696.88 752.745 701.419 751.695L722.879 746.726C724.43 746.367 726.063 746.594 727.465 747.363L746.445 757.778L746.863 758.007C750.966 760.259 756.001 757.579 756.421 752.922L758.476 730.108C758.614 728.576 759.288 727.147 760.379 726.072L771.042 715.568L776.593 710.099C779.864 706.877 778.831 701.338 774.612 699.477L770.56 697.689L767.553 696.362L754.152 690.45C752.711 689.814 751.545 688.677 750.871 687.25Z"
      fill="white"
    />
</g>
<defs>
<filter
      id="filter0_d_268_117"
      x="88"
      y="96"
      width="848"
      height="840"
      filterUnits="userSpaceOnUse"
      color-interpolation-filters="sRGB"
    >
<feFlood flood-opacity="0" result="BackgroundImageFix" />
<feColorMatrix
        in="SourceAlpha"
        type="matrix"
        values="0 0 0 0 0 0 0 0 0 0 0 0 0 0 0 0 0 0 127 0"
        result="hardAlpha"
      />
<feOffset dy="4" />
<feGaussianBlur stdDeviation="25" />
<feComposite in2="hardAlpha" operator="out" />
<feColorMatrix
        type="matrix"
        values="0 0 0 0 1 0 0 0 0 1 0 0 0 0 1 0 0 0 0.25 0"
      />
<feBlend
        mode="normal"
        in2="BackgroundImageFix"
        result="effect1_dropShadow_268_117"
      />
<feBlend
        mode="normal"
        in="SourceGraphic"
        in2="effect1_dropShadow_268_117"
        result="shape"
      />
</filter>
<filter
      id="filter1_d_268_117"
      x="444"
      y="472.103"
      width="464"
      height="477"
      filterUnits="userSpaceOnUse"
      color-interpolation-filters="sRGB"
    >
<feFlood flood-opacity="0" result="BackgroundImageFix" />
<feColorMatrix
        in="SourceAlpha"
        type="matrix"
        values="0 0 0 0 0 0 0 0 0 0 0 0 0 0 0 0 0 0 127 0"
        result="hardAlpha"
      />
<feOffset dy="10" />
<feGaussianBlur stdDeviation="25" />
<feComposite in2="hardAlpha" operator="out" />
<feColorMatrix
        type="matrix"
        values="0 0 0 0 1 0 0 0 0 1 0 0 0 0 1 0 0 0 0.25 0"
      />
<feBlend
        mode="normal"
        in2="BackgroundImageFix"
        result="effect1_dropShadow_268_117"
      />
<feBlend
        mode="normal"
        in="SourceGraphic"
        in2="effect1_dropShadow_268_117"
        result="shape"
      />
</filter>
<linearGradient
      id="paint0_linear_268_117"
      x1="512"
      y1="0"
      x2="512"
      y2="1024"
      gradientUnits="userSpaceOnUse"
    >
<stop />
<stop offset="1" />
</linearGradient>
</defs>
</svg>
